<mxfile host="app.diagrams.net" modified="2024-07-23T14:06:51.239Z" agent="Mozilla/5.0 (Macintosh; Intel Mac OS X 10.15; rv:128.0) Gecko/20100101 Firefox/128.0" version="24.7.1" etag="f08W7N0vbiMCaUEUeRMS" type="github">
  <diagram name="Page-1" id="Bv0Ag1v8jkVRtd_cG3vF">
    <mxGraphModel>
      <root>
        <mxCell id="0" />
        <mxCell id="1" parent="0" />
      </root>
    </mxGraphModel>
  </diagram>
</mxfile>
